<svg xmlns="http://www.w3.org/2000/svg" viewBox="0 0 640 420" role="img" aria-label="ご当地バーガーのイメージ">
  <rect width="640" height="420" fill="#fff7ed"/>
  <circle cx="510" cy="90" r="72" fill="#fed7aa"/>
  <path d="M72 278c52-82 139-122 240-119 111 4 202 54 255 125" fill="none" stroke="#fb923c" stroke-width="32" stroke-linecap="round"/>
  <path d="M120 255h400c24 0 44 20 44 44v8H76v-8c0-24 20-44 44-44Z" fill="#f59e0b"/>
  <path d="M88 303h464v34c0 28-23 51-51 51H139c-28 0-51-23-51-51v-34Z" fill="#92400e"/>
  <path d="M96 296c40-26 73-26 111 0s74 26 112 0 75-26 113 0 72 26 111 0" fill="none" stroke="#16a34a" stroke-width="18" stroke-linecap="round"/>
  <path d="M132 229c35-32 89-49 162-49 79 0 148 18 203 55" fill="none" stroke="#fdba74" stroke-width="38" stroke-linecap="round"/>
  <g fill="#fff7ed">
    <circle cx="212" cy="204" r="6"/>
    <circle cx="278" cy="196" r="6"/>
    <circle cx="348" cy="202" r="6"/>
    <circle cx="424" cy="218" r="6"/>
  </g>
  <text x="72" y="82" fill="#7c2d12" font-family="sans-serif" font-size="36" font-weight="800">LOCAL GOURMET</text>
</svg>
